<?xml version="1.0" encoding="UTF-8" standalone="no"?>
<!-- Created with Inkscape (http://www.inkscape.org/) -->

<svg
   width="1303.8752mm"
   height="232.02815mm"
   viewBox="0 0 1303.8752 232.02815"
   version="1.1"
   id="svg5"
   sodipodi:docname="destacame_bus_logo_blank.svg"
   inkscape:version="1.1.1 (3bf5ae0d25, 2021-09-20)"
   xmlns:inkscape="http://www.inkscape.org/namespaces/inkscape"
   xmlns:sodipodi="http://sodipodi.sourceforge.net/DTD/sodipodi-0.dtd"
   xmlns="http://www.w3.org/2000/svg"
   xmlns:svg="http://www.w3.org/2000/svg">
  <sodipodi:namedview
     id="namedview7"
     pagecolor="#ffffff"
     bordercolor="#666666"
     borderopacity="1.0"
     inkscape:pageshadow="2"
     inkscape:pageopacity="0.0"
     inkscape:pagecheckerboard="0"
     inkscape:document-units="px"
     showgrid="false"
     showborder="false"
     inkscape:object-paths="false"
     inkscape:snap-intersection-paths="false"
     inkscape:object-nodes="false"
     inkscape:snap-smooth-nodes="false"
     inkscape:snap-nodes="true"
     inkscape:snap-others="true"
     inkscape:snap-midpoints="false"
     inkscape:snap-bbox="false"
     inkscape:snap-bbox-edge-midpoints="false"
     inkscape:zoom="0.45254832"
     inkscape:cx="585.57283"
     inkscape:cy="714.8408"
     inkscape:window-width="1920"
     inkscape:window-height="1001"
     inkscape:window-x="-9"
     inkscape:window-y="-9"
     inkscape:window-maximized="1"
     inkscape:current-layer="layer1"
     objecttolerance="10000"
     fit-margin-top="0"
     fit-margin-left="0"
     fit-margin-right="0"
     fit-margin-bottom="0"
     inkscape:bbox-nodes="false" />
  <defs
     id="defs2">
    <rect
       x="336"
       y="-544"
       width="664"
       height="88"
       id="rect24620" />
    <rect
       x="-336"
       y="-688"
       width="3880"
       height="904"
       id="rect10622" />
  </defs>
  <g
     inkscape:label="Capa 1"
     inkscape:groupmode="layer"
     id="layer1"
     transform="translate(403.67302,154.75896)">
    <g
       aria-label="DESTACAME BUS"
       transform="matrix(0.26458333,0,0,0.26458333,-28.499786,56.742778)"
       id="text10620"
       style="font-size:600px;line-height:1.25;font-family:Gadugi;-inkscape-font-specification:Gadugi;white-space:pre;shape-inside:url(#rect10622);fill:#ffffff">
      <path
         d="m -291.50781,-561.66706 h 92.28515 q 89.35547,0 120.703129,8.20313 31.640625,8.20312 48.046875,26.95312 16.40625,18.75 20.5078122,41.89454 4.1015626,22.85156 4.1015626,90.23437 v 166.11328 q 0,63.86719 -6.1523438,85.54688 -5.859375,21.38672 -20.800781,33.6914 -14.941406,12.011722 -36.914063,16.992191 -21.972656,4.6875 -66.210941,4.6875 h -155.5664 z m 123.33984,81.15235 v 312.01172 q 26.66016,0 32.8125,-10.54688 6.15235,-10.83984 6.15235,-58.30078 v -184.27734 q 0,-32.22657 -2.05079,-41.3086 -2.05078,-9.08203 -9.375,-13.18359 -7.32421,-4.39453 -27.53906,-4.39453 z"
         style="font-weight:bold;font-family:Impact;-inkscape-font-specification:'Impact Bold';text-align:center;text-anchor:middle;fill:#ffffff"
         id="path65478" />
      <path
         d="M 40.132812,-561.66706 H 245.79687 v 94.92188 h -82.32421 v 89.94141 h 77.05078 v 90.23437 h -77.05078 v 104.29688 H 254 v 94.921871 H 40.132812 Z"
         style="font-weight:bold;font-family:Impact;-inkscape-font-specification:'Impact Bold';text-align:center;text-anchor:middle;fill:#ffffff"
         id="path65480" />
      <path
         d="M 550.77734,-418.11237 H 436.22656 v -35.15625 q 0,-24.60937 -4.39453,-31.34765 -4.39453,-6.73829 -14.64844,-6.73829 -11.13281,0 -16.99218,9.08204 -5.56641,9.08203 -5.56641,27.53906 0,23.73047 6.44531,35.74219 6.15235,12.01171 34.86328,29.0039 82.32422,48.92578 103.71094,80.27344 21.38672,31.34766 21.38672,101.07422 0,50.68359 -12.01172,74.70703 -11.71875,24.02344 -45.70312,40.429687 -33.98438,16.113281 -79.10157,16.113281 -49.51172,0 -84.66797,-18.75 -34.86328,-18.749998 -45.70312,-47.753908 -10.83984,-29.0039 -10.83984,-82.32422 v -31.05468 h 114.55078 v 57.71484 q 0,26.66016 4.6875,34.27734 4.98047,7.61719 17.28515,7.61719 12.30469,0 18.16407,-9.66797 6.15234,-9.66797 6.15234,-28.71094 0,-41.89453 -11.42578,-54.78515 -11.71875,-12.89063 -57.71485,-43.06641 -45.99609,-30.46875 -60.9375,-44.23828 -14.9414,-13.76953 -24.90234,-38.08594 -9.66797,-24.3164 -9.66797,-62.10937 0,-54.49219 13.76953,-79.6875 14.0625,-25.19531 45.11719,-39.25781 31.05469,-14.35547 75,-14.35547 48.04688,0 81.73828,15.52734 33.98438,15.52734 44.82422,39.25781 11.13281,23.4375 11.13281,79.98047 z"
         style="font-weight:bold;font-family:Impact;-inkscape-font-specification:'Impact Bold';text-align:center;text-anchor:middle;fill:#ffffff"
         id="path65482" />
      <path
         d="m 848.14062,-561.66706 v 94.92188 H 774.89844 V -87.350649 H 651.55859 V -466.74518 h -72.94922 v -94.92188 z"
         style="font-weight:bold;font-family:Impact;-inkscape-font-specification:'Impact Bold';text-align:center;text-anchor:middle;fill:#ffffff"
         id="path65484" />
      <path
         d="m 1065.2305,-561.66706 70.6054,474.316411 h -126.2695 l -6.1523,-85.253911 h -44.23832 l -7.32422,85.253911 H 824.11719 L 886.8125,-561.66706 Z m -65.33206,304.98047 q -9.375,-80.5664 -18.75,-198.92578 -18.75,135.9375 -23.4375,198.92578 z"
         style="font-weight:bold;font-family:Impact;-inkscape-font-specification:'Impact Bold';text-align:center;text-anchor:middle;fill:#ffffff"
         id="path65486" />
      <path
         d="m 1444.918,-354.83112 h -123.3399 v -82.61719 q 0,-36.03515 -4.1015,-44.82421 -3.8086,-9.08204 -17.2852,-9.08204 -15.2344,0 -19.3359,10.83985 -4.1016,10.83984 -4.1016,46.875 v 220.3125 q 0,34.57031 4.1016,45.11719 4.1015,10.54687 18.457,10.54687 13.7695,0 17.8711,-10.54687 4.3945,-10.54688 4.3945,-49.51172 v -59.47266 h 123.3399 v 18.45703 q 0,73.53516 -10.5469,104.29688 -10.2539,30.76172 -45.9961,53.90625 -35.4492,23.144528 -87.5977,23.144528 -54.1992,0 -89.3554,-19.628906 -35.1563,-19.628902 -46.5821,-54.199222 -11.4257,-34.86328 -11.4257,-104.58984 V -394.3819 q 0,-51.26953 3.5156,-76.75781 3.5156,-25.78125 20.8008,-49.51172 17.5781,-23.73047 48.3398,-37.20703 31.0547,-13.76953 71.1914,-13.76953 54.4922,0 89.9414,21.09375 35.4492,21.09375 46.5821,52.73437 11.1328,31.34766 11.1328,97.85156 z"
         style="font-weight:bold;font-family:Impact;-inkscape-font-specification:'Impact Bold';text-align:center;text-anchor:middle;fill:#ffffff"
         id="path65488" />
      <path
         d="m 1702.1445,-561.66706 70.6055,474.316411 h -126.2695 l -6.1524,-85.253911 h -44.2383 l -7.3242,85.253911 h -127.7343 l 62.6953,-474.316411 z m -65.332,304.98047 q -9.375,-80.5664 -18.75,-198.92578 -18.75,135.9375 -23.4375,198.92578 z"
         style="font-weight:bold;font-family:Impact;-inkscape-font-specification:'Impact Bold';text-align:center;text-anchor:middle;fill:#ffffff"
         id="path65490" />
      <path
         d="M 2174.4102,-561.66706 V -87.350649 H 2066.5977 V -407.56549 l -43.0664,320.214841 h -76.4649 L 1901.6563,-400.24127 V -87.350649 H 1793.8438 V -561.66706 h 159.6679 q 7.0313,42.77344 14.9414,100.78125 l 16.9922,120.70313 28.125,-221.48438 z"
         style="font-weight:bold;font-family:Impact;-inkscape-font-specification:'Impact Bold';text-align:center;text-anchor:middle;fill:#ffffff"
         id="path65492" />
      <path
         d="m 2223.9219,-561.66706 h 205.664 v 94.92188 h -82.3242 v 89.94141 h 77.0508 v 90.23437 h -77.0508 v 104.29688 h 90.5274 v 94.921871 h -213.8672 z"
         style="font-weight:bold;font-family:Impact;-inkscape-font-specification:'Impact Bold';text-align:center;text-anchor:middle;fill:#ffffff"
         id="path65494" />
      <path
         d="m 2579,-561.66706 h 123.0469 q 58.3008,0 88.1836,9.08204 30.1758,9.08203 48.6328,36.91406 18.457,27.53906 18.457,89.0625 0,41.60156 -13.1836,58.00781 -12.8906,16.40625 -51.2695,25.19531 42.7734,9.66797 58.0078,32.22657 15.2344,22.26562 15.2344,68.55468 v 43.94532 q 0,48.04687 -11.1328,71.1914 -10.8399,23.14453 -34.8633,31.640627 -24.0235,8.496094 -98.4375,8.496094 H 2579 Z m 123.3398,81.15235 v 105.46875 q 7.9102,-0.29297 12.3047,-0.29297 18.1641,0 23.1446,-8.78906 4.9804,-9.08203 4.9804,-51.26953 0,-22.26563 -4.1015,-31.05469 -4.1016,-9.08203 -10.8399,-11.42578 -6.4453,-2.34375 -25.4883,-2.63672 z m 0,179.29687 v 132.71485 q 26.0743,-0.87891 33.1055,-8.20313 7.3242,-7.32422 7.3242,-36.03515 v -44.23829 q 0,-30.46875 -6.4453,-36.91406 -6.4453,-6.44531 -33.9844,-7.32422 z"
         style="font-weight:bold;font-family:Impact;-inkscape-font-specification:'Impact Bold';text-align:center;text-anchor:middle;fill:#ffffff"
         id="path65496" />
      <path
         d="m 3190.7188,-561.66706 v 316.99219 q 0,53.90625 -3.5157,75.87891 -3.5156,21.67969 -20.8008,44.82422 -17.2851,22.85156 -45.7031,34.863278 -28.125,11.71875 -66.5039,11.71875 -42.4805,0 -75,-14.0625 -32.5195,-14.062498 -48.6328,-36.621098 -16.1133,-22.55859 -19.043,-47.46093 -2.9297,-25.19532 -2.9297,-105.46875 v -280.66407 h 123.3399 v 355.66407 q 0,31.05468 3.2226,39.84375 3.5157,8.49609 13.7696,8.49609 11.7187,0 14.9414,-9.375 3.5156,-9.66797 3.5156,-45.11719 v -349.51172 z"
         style="font-weight:bold;font-family:Impact;-inkscape-font-specification:'Impact Bold';text-align:center;text-anchor:middle;fill:#ffffff"
         id="path65498" />
      <path
         d="M 3499.8008,-418.11237 H 3385.25 v -35.15625 q 0,-24.60937 -4.3945,-31.34765 -4.3946,-6.73829 -14.6485,-6.73829 -11.1328,0 -16.9922,9.08204 -5.5664,9.08203 -5.5664,27.53906 0,23.73047 6.4454,35.74219 6.1523,12.01171 34.8632,29.0039 82.3243,48.92578 103.711,80.27344 21.3867,31.34766 21.3867,101.07422 0,50.68359 -12.0117,74.70703 -11.7188,24.02344 -45.7032,40.429687 -33.9843,16.113281 -79.1015,16.113281 -49.5117,0 -84.668,-18.75 -34.8633,-18.749998 -45.7031,-47.753908 -10.8399,-29.0039 -10.8399,-82.32422 v -31.05468 h 114.5508 v 57.71484 q 0,26.66016 4.6875,34.27734 4.9805,7.61719 17.2852,7.61719 12.3047,0 18.164,-9.66797 6.1524,-9.66797 6.1524,-28.71094 0,-41.89453 -11.4258,-54.78515 -11.7187,-12.89063 -57.7148,-43.06641 -45.9961,-30.46875 -60.9375,-44.23828 -14.9414,-13.76953 -24.9024,-38.08594 -9.6679,-24.3164 -9.6679,-62.10937 0,-54.49219 13.7695,-79.6875 14.0625,-25.19531 45.1172,-39.25781 31.0547,-14.35547 75,-14.35547 48.0468,0 81.7383,15.52734 33.9843,15.52734 44.8242,39.25781 11.1328,23.4375 11.1328,79.98047 z"
         style="font-weight:bold;font-family:Impact;-inkscape-font-specification:'Impact Bold';text-align:center;text-anchor:middle;fill:#ffffff"
         id="path65500" />
    </g>
    <text
       xml:space="preserve"
       transform="scale(0.26458333)"
       id="text24618"
       style="font-style:normal;font-weight:normal;font-size:40px;line-height:1.25;font-family:sans-serif;white-space:pre;shape-inside:url(#rect24620);fill:#000000;fill-opacity:1;stroke:none" />
    <rect
       style="fill:#ffffff;stroke-width:4.774"
       id="rect1483"
       width="224.89583"
       height="119.58994"
       x="-397.05844"
       y="-142.80295"
       ry="12.207662" />
    <rect
       style="fill:#ffffff;stroke-width:1.32291667;stroke:#31395b;stroke-opacity:1;stroke-miterlimit:4;stroke-dasharray:none"
       id="rect3152"
       width="185.20833"
       height="52.916664"
       x="-377.21469"
       y="-121.24532"
       ry="4.6594963" />
    <rect
       style="fill:#ffffff;stroke-width:10.0794"
       id="rect2946"
       width="158.75"
       height="13.745392"
       x="-363.98553"
       y="-154.75896"
       ry="3.6328788" />
    <path
       id="rect2105"
       style="fill:#ffffff;stroke-width:4.62124"
       d="m -389.14884,-45.899002 c -8.04635,0 -14.52418,6.47782 -14.52418,14.524169 V 45.41013 c 0,8.04635 6.47783,14.524196 14.52418,14.524196 h 20.99045 26.45833 116.41666 26.45833 18.75286 c 8.04637,0 14.52419,-6.477846 14.52419,-14.524196 v -76.784963 c 0,-8.046349 -6.47782,-14.524169 -14.52419,-14.524169 z m 53.60603,40.8863778 h 101.86458 c 1.09934,0 1.98437,0.8850312 1.98437,1.9843749 0,1.0993437 -0.88503,1.9843749 -1.98437,1.9843749 h -101.86458 c -1.09935,0 -1.98438,-0.8850312 -1.98438,-1.9843749 0,-1.0993437 0.88503,-1.9843749 1.98438,-1.9843749 z m -28.06444,0.064611 a 13.229164,13.229164 0 0 1 13.22917,13.229166 13.229164,13.229164 0 0 1 -13.22917,13.2291662 13.229164,13.229164 0 0 1 -13.22916,-13.2291662 13.229164,13.229164 0 0 1 13.22916,-13.229166 z m 161.94825,0 A 13.229165,13.229165 0 0 1 -188.42984,8.2811531 13.229165,13.229165 0 0 1 -201.659,21.510319 13.229165,13.229165 0 0 1 -214.88817,8.2811531 13.229165,13.229165 0 0 1 -201.659,-4.9480132 Z m -133.88381,7.8728883 h 101.86458 c 1.09934,0 1.98437,0.8850312 1.98437,1.9843749 0,1.0993437 -0.88503,1.9843749 -1.98437,1.9843749 h -101.86458 c -1.09935,0 -1.98438,-0.8850312 -1.98438,-1.9843749 0,-1.0993437 0.88503,-1.9843749 1.98438,-1.9843749 z m 0,7.9374999 h 101.86458 c 1.09934,0 1.98437,0.885031 1.98437,1.984375 0,1.099344 -0.88503,1.984375 -1.98437,1.984375 h -101.86458 c -1.09935,0 -1.98438,-0.885031 -1.98438,-1.984375 0,-1.099344 0.88503,-1.984375 1.98438,-1.984375 z m 0,7.9375 h 101.86458 c 1.09934,0 1.98437,0.885031 1.98437,1.984375 0,1.099343 -0.88503,1.984374 -1.98437,1.984374 h -101.86458 c -1.09935,0 -1.98438,-0.885031 -1.98438,-1.984374 0,-1.099344 0.88503,-1.984375 1.98438,-1.984375 z" />
    <rect
       style="fill:#ffffff;fill-opacity:1;stroke-width:10.5833"
       id="rect4448"
       width="0.73081511"
       height="2.4847713"
       x="-341.82773"
       y="36.886211"
       ry="0.36540756" />
    <path
       id="rect5081"
       style="fill:#ffffff;fill-opacity:1;stroke-width:1.32291667;stroke:#31395b;stroke-opacity:1;stroke-miterlimit:4;stroke-dasharray:none"
       d="m -370.80422,59.934326 v 13.484965 c 0,2.132727 2.0606,3.849899 4.61987,3.849899 h 22.51025 c 2.55927,-2.6e-5 4.61988,-1.717172 4.61988,-3.849899 V 59.934326 h -28.11116 z" />
    <path
       id="path5464"
       style="fill:#f9f9f9;fill-opacity:1;stroke-width:1.32291667;stroke-miterlimit:4;stroke-dasharray:none;stroke:#31395b;stroke-opacity:1"
       d="m -222.63756,59.934326 v 13.484965 c 0,2.132727 2.0606,3.849899 4.61987,3.849899 h 22.51026 c 2.55926,-2.6e-5 4.61987,-1.717172 4.61987,-3.849899 V 59.934326 h -28.11116 z" />
    <rect
       style="fill:#ffffff;stroke-width:10.8869"
       id="rect5676"
       width="185.20833"
       height="13.745392"
       x="-377.21469"
       y="-149.8717"
       ry="2.4602969" />
    <path
       id="rect5884"
       style="fill:#31395b;fill-opacity:1;stroke-width:0.02883958;stroke:none;stroke-opacity:1;stroke-miterlimit:4;stroke-dasharray:none"
       d="m -322.83609,-109.57677 c -0.076,10e-4 -0.15882,0.0168 -0.24856,0.0486 -0.71797,0.25404 -1.5826,1.42881 -1.93839,2.63395 l -11.38535,38.565594 h 2.32079 l 11.65665,-39.482854 c 0.31132,-1.0545 0.12678,-1.77242 -0.40514,-1.76526 z" />
    <path
       id="path7757"
       style="fill:#31395b;fill-opacity:1;stroke-width:0.02876426;stroke:none;stroke-opacity:1;stroke-miterlimit:4;stroke-dasharray:none"
       d="m -230.23193,-109.57677 c -0.076,10e-4 -0.15882,0.0168 -0.24856,0.0486 -0.71797,0.25404 -1.5826,1.42881 -1.93839,2.63395 l -11.38535,38.565594 h 2.32079 l 11.65665,-39.482854 c 0.31132,-1.0545 0.12678,-1.77242 -0.40514,-1.76526 z" />
  </g>
</svg>
